<svg id="svg" version="1.1" xmlns="http://www.w3.org/2000/svg" xmlns:xlink="http://www.w3.org/1999/xlink" width="400" height="363.265306122449" viewBox="0, 0, 400,363.265306122449"><g id="svgg"><path id="path0" d="M264.027 0.416 C 259.787 1.132,253.715 5.002,249.112 9.923 C 243.789 15.614,239.563 21.868,226.723 43.061 C 201.695 84.369,185.005 100.501,160.000 107.554 C 147.819 110.990,137.566 120.106,117.241 145.569 L 109.701 155.015 55.054 177.609 C 24.999 190.035,0.454 200.333,0.510 200.493 C 0.590 200.720,86.579 261.422,88.519 262.621 C 88.780 262.782,90.889 262.172,93.207 261.266 C 106.050 256.245,115.590 257.963,124.519 266.904 C 135.693 278.093,145.309 298.839,166.965 358.475 L 168.709 363.277 170.171 363.026 C 198.655 358.139,217.711 343.300,258.978 293.878 C 291.975 254.357,298.904 249.235,319.388 249.210 C 335.617 249.190,342.267 252.892,364.047 274.073 C 377.492 287.149,383.993 292.679,393.673 299.277 C 400.442 303.890,400.223 303.853,398.502 300.105 C 386.757 274.536,374.282 241.700,347.757 166.531 C 329.835 115.741,322.933 97.009,313.693 74.082 C 296.083 30.386,282.377 7.300,270.609 1.508 C 267.418 -0.062,267.133 -0.109,264.027 0.416 M220.469 78.828 C 203.067 122.341,192.841 144.387,178.460 169.388 C 173.787 177.512,166.052 189.796,165.609 189.796 C 165.434 189.796,158.450 184.699,150.090 178.469 C 125.446 160.105,121.261 156.950,121.242 156.723 C 121.161 155.738,137.928 135.985,144.085 129.812 C 152.213 121.662,155.924 119.212,163.522 116.983 C 186.856 110.138,207.515 92.501,225.311 64.232 C 226.318 62.632,227.197 61.370,227.264 61.428 C 227.330 61.487,224.272 69.317,220.469 78.828 M120.297 168.850 C 145.139 187.248,159.553 198.493,159.184 199.184 C 157.528 202.278,144.241 218.375,137.701 225.211 L 134.082 228.993 111.955 240.194 L 89.828 251.395 67.465 235.645 C 55.165 226.982,39.622 216.031,32.923 211.310 C 24.908 205.661,20.931 202.626,21.290 202.432 C 21.591 202.271,35.061 196.675,51.224 189.998 C 67.388 183.320,88.051 174.767,97.143 170.991 C 106.235 167.215,113.715 164.115,113.767 164.103 C 113.818 164.091,116.756 166.227,120.297 168.850 " stroke="none" fill="#000000" fill-rule="evenodd"></path></g></svg>