<svg id="svg" xmlns="http://www.w3.org/2000/svg" xmlns:xlink="http://www.w3.org/1999/xlink" width="400" height="400" viewBox="0, 0, 400,400" version="1.1"><g id="svgg"><path id="path0" d="M94.780 84.980 C 94.287 85.473,94.269 113.472,94.762 113.776 C 95.011 113.930,296.135 114.139,306.400 113.996 C 306.933 113.989,306.933 113.945,306.400 113.600 C 306.000 113.342,305.967 113.210,306.300 113.206 C 306.690 113.201,306.800 110.170,306.800 99.400 C 306.800 88.630,306.690 85.599,306.300 85.594 C 305.967 85.590,306.000 85.458,306.400 85.200 C 306.933 84.855,306.933 84.811,306.400 84.804 C 288.099 84.549,95.050 84.710,94.780 84.980 M93.780 99.400 C 93.780 106.880,93.834 109.883,93.899 106.074 C 93.965 102.265,93.965 96.145,93.899 92.474 C 93.833 88.803,93.779 91.920,93.780 99.400 M306.299 106.074 C 306.234 109.883,306.180 106.880,306.180 99.400 C 306.179 91.920,306.233 88.803,306.299 92.474 C 306.365 96.145,306.365 102.265,306.299 106.074 M94.262 139.131 C 93.669 139.786,93.610 141.286,93.692 153.431 L 93.784 167.000 94.000 153.600 L 94.216 140.200 94.308 153.700 C 94.368 162.495,94.261 167.200,94.000 167.200 C 93.780 167.200,93.600 167.410,93.600 167.667 C 93.600 167.923,93.711 168.022,93.848 167.886 C 93.984 167.750,94.357 167.900,94.678 168.220 C 95.415 168.958,306.400 169.110,306.400 168.373 C 306.400 168.142,306.250 168.045,306.067 168.159 C 305.883 168.272,305.733 168.113,305.733 167.805 C 305.733 167.497,305.928 167.279,306.167 167.322 C 306.471 167.377,306.603 163.284,306.611 153.600 L 306.621 139.800 306.403 153.400 L 306.184 167.000 306.092 153.733 C 306.041 146.436,305.879 140.151,305.732 139.767 C 305.551 139.294,305.614 139.161,305.927 139.355 C 306.234 139.545,306.307 139.423,306.142 138.994 C 305.966 138.535,305.769 138.471,305.467 138.773 C 305.166 139.074,274.092 139.171,200.220 139.101 L 95.400 139.002 200.200 138.800 L 305.000 138.598 199.962 138.499 C 98.642 138.403,94.901 138.426,94.262 139.131 M93.880 192.936 C 93.767 193.231,93.835 193.726,94.031 194.036 C 94.237 194.362,94.349 222.013,94.296 259.600 L 94.204 324.600 94.000 259.400 L 93.796 194.200 93.698 260.325 L 93.600 326.451 94.900 326.325 C 95.792 326.239,96.186 326.001,96.155 325.566 C 96.123 325.108,96.373 324.982,97.055 325.113 C 97.592 325.215,98.000 325.100,98.000 324.847 C 98.000 324.601,98.135 324.429,98.300 324.464 C 98.902 324.591,100.000 323.901,100.000 323.395 C 100.000 323.072,100.303 322.954,100.800 323.084 C 101.388 323.238,101.602 323.095,101.606 322.547 C 101.611 321.985,101.696 321.932,101.951 322.334 C 102.207 322.739,102.554 322.546,103.385 321.534 C 103.988 320.800,104.362 320.425,104.217 320.700 C 104.059 320.999,104.203 321.200,104.576 321.200 C 104.919 321.200,105.200 320.930,105.200 320.600 C 105.200 320.270,105.391 320.000,105.624 320.000 C 105.857 320.000,105.912 320.225,105.747 320.500 C 105.540 320.844,105.656 320.830,106.119 320.455 C 106.489 320.155,106.674 319.719,106.530 319.487 C 106.377 319.239,106.503 319.152,106.834 319.277 C 107.145 319.394,107.760 319.347,108.200 319.173 C 108.963 318.871,108.964 318.855,108.233 318.828 C 107.292 318.794,107.719 318.292,108.835 318.122 C 109.369 318.040,109.550 318.157,109.363 318.461 C 109.179 318.757,109.252 318.815,109.565 318.621 C 109.834 318.455,109.969 318.095,109.864 317.822 C 109.734 317.483,109.980 317.384,110.637 317.509 C 111.189 317.615,111.600 317.503,111.600 317.247 C 111.600 317.001,111.735 316.829,111.900 316.864 C 112.502 316.991,113.600 316.301,113.600 315.795 C 113.600 315.472,113.903 315.354,114.400 315.484 C 114.988 315.638,115.202 315.495,115.206 314.947 C 115.211 314.385,115.296 314.332,115.551 314.734 C 115.807 315.139,116.154 314.946,116.985 313.934 C 117.588 313.200,117.962 312.825,117.817 313.100 C 117.659 313.399,117.803 313.600,118.176 313.600 C 118.519 313.600,118.800 313.330,118.800 313.000 C 118.800 312.670,118.991 312.400,119.224 312.400 C 119.457 312.400,119.512 312.625,119.347 312.900 C 119.140 313.244,119.256 313.230,119.719 312.855 C 120.089 312.555,120.274 312.119,120.130 311.887 C 119.977 311.639,120.103 311.552,120.434 311.677 C 120.745 311.794,121.360 311.747,121.800 311.573 C 122.563 311.271,122.564 311.255,121.833 311.228 C 120.892 311.194,121.319 310.692,122.435 310.522 C 122.969 310.440,123.150 310.557,122.963 310.861 C 122.779 311.157,122.852 311.215,123.165 311.021 C 123.434 310.855,123.569 310.495,123.464 310.222 C 123.334 309.883,123.580 309.784,124.237 309.909 C 124.789 310.015,125.200 309.903,125.200 309.647 C 125.200 309.401,125.335 309.229,125.500 309.264 C 126.135 309.398,127.200 308.688,127.200 308.130 C 127.200 307.728,127.449 307.625,128.000 307.800 C 128.599 307.990,128.802 307.871,128.806 307.327 C 128.811 306.776,128.894 306.729,129.151 307.134 C 129.407 307.539,129.754 307.346,130.585 306.334 C 131.188 305.600,131.562 305.225,131.417 305.500 C 131.259 305.799,131.403 306.000,131.776 306.000 C 132.119 306.000,132.400 305.730,132.400 305.400 C 132.400 305.070,132.591 304.800,132.824 304.800 C 133.057 304.800,133.112 305.025,132.947 305.300 C 132.740 305.644,132.856 305.630,133.319 305.255 C 133.689 304.955,133.874 304.519,133.730 304.287 C 133.577 304.039,133.703 303.952,134.034 304.077 C 134.345 304.194,134.960 304.147,135.400 303.973 C 136.163 303.671,136.164 303.655,135.433 303.628 C 134.492 303.594,134.919 303.092,136.035 302.922 C 136.569 302.840,136.750 302.957,136.563 303.261 C 136.379 303.557,136.452 303.615,136.765 303.421 C 137.034 303.255,137.169 302.895,137.064 302.622 C 136.934 302.283,137.180 302.184,137.837 302.309 C 138.389 302.415,138.800 302.303,138.800 302.047 C 138.800 301.801,138.935 301.629,139.100 301.664 C 139.702 301.791,140.800 301.101,140.800 300.595 C 140.800 300.272,141.103 300.154,141.600 300.284 C 142.188 300.438,142.402 300.295,142.406 299.747 C 142.411 299.185,142.496 299.132,142.751 299.534 C 143.007 299.939,143.354 299.746,144.185 298.734 C 144.788 298.000,145.162 297.625,145.017 297.900 C 144.859 298.199,145.003 298.400,145.376 298.400 C 145.719 298.400,146.000 298.130,146.000 297.800 C 146.000 297.470,146.191 297.200,146.424 297.200 C 146.657 297.200,146.712 297.425,146.547 297.700 C 146.340 298.044,146.456 298.030,146.919 297.655 C 147.289 297.355,147.474 296.919,147.330 296.687 C 147.177 296.439,147.303 296.352,147.634 296.477 C 147.945 296.594,148.560 296.547,149.000 296.373 C 149.763 296.071,149.764 296.055,149.033 296.028 C 148.092 295.994,148.519 295.492,149.635 295.322 C 150.169 295.240,150.350 295.357,150.163 295.661 C 149.979 295.957,150.052 296.015,150.365 295.821 C 150.634 295.655,150.769 295.295,150.664 295.022 C 150.534 294.683,150.780 294.584,151.437 294.709 C 151.989 294.815,152.400 294.703,152.400 294.447 C 152.400 294.201,152.535 294.029,152.700 294.064 C 153.302 294.191,154.400 293.501,154.400 292.995 C 154.400 292.672,154.703 292.554,155.200 292.684 C 155.788 292.838,156.002 292.695,156.006 292.147 C 156.011 291.585,156.096 291.532,156.351 291.934 C 156.607 292.339,156.954 292.146,157.785 291.134 C 158.388 290.400,158.762 290.025,158.617 290.300 C 158.459 290.599,158.603 290.800,158.976 290.800 C 159.319 290.800,159.600 290.530,159.600 290.200 C 159.600 289.870,159.791 289.600,160.024 289.600 C 160.257 289.600,160.312 289.825,160.147 290.100 C 159.940 290.444,160.056 290.430,160.519 290.055 C 160.889 289.755,161.074 289.319,160.930 289.087 C 160.777 288.839,160.903 288.752,161.234 288.877 C 161.545 288.994,162.160 288.947,162.600 288.773 C 163.363 288.471,163.364 288.455,162.633 288.428 C 161.692 288.394,162.119 287.892,163.235 287.722 C 163.769 287.640,163.950 287.757,163.763 288.061 C 163.579 288.357,163.652 288.415,163.965 288.221 C 164.234 288.055,164.369 287.695,164.264 287.422 C 164.134 287.083,164.380 286.984,165.037 287.109 C 165.589 287.215,166.000 287.103,166.000 286.847 C 166.000 286.601,166.135 286.429,166.300 286.464 C 166.902 286.591,168.000 285.901,168.000 285.395 C 168.000 285.072,168.303 284.954,168.800 285.084 C 169.388 285.238,169.602 285.095,169.606 284.547 C 169.611 283.985,169.696 283.932,169.951 284.334 C 170.207 284.739,170.554 284.546,171.385 283.534 C 171.988 282.800,172.362 282.425,172.217 282.700 C 172.059 282.999,172.203 283.200,172.576 283.200 C 172.919 283.200,173.200 282.930,173.200 282.600 C 173.200 282.270,173.391 282.000,173.624 282.000 C 173.857 282.000,173.912 282.225,173.747 282.500 C 173.540 282.844,173.656 282.830,174.119 282.455 C 174.489 282.155,174.674 281.719,174.530 281.487 C 174.373 281.233,174.508 281.156,174.870 281.295 C 175.679 281.605,178.087 280.403,177.856 279.803 C 177.735 279.486,177.998 279.387,178.637 279.509 C 179.213 279.619,179.600 279.504,179.600 279.223 C 179.600 278.964,179.753 278.847,179.939 278.963 C 180.126 279.078,180.659 278.819,181.123 278.386 C 181.587 277.954,182.244 277.600,182.583 277.600 C 182.922 277.600,183.203 277.285,183.206 276.900 C 183.211 276.302,183.269 276.287,183.600 276.800 C 183.949 277.340,184.172 277.090,184.047 276.300 C 184.021 276.135,184.167 276.045,184.372 276.100 C 184.576 276.155,185.040 275.840,185.401 275.400 C 185.763 274.960,185.945 274.825,185.806 275.100 C 185.657 275.394,185.809 275.600,186.176 275.600 C 186.519 275.600,186.800 275.330,186.800 275.000 C 186.800 274.670,186.991 274.400,187.224 274.400 C 187.457 274.400,187.512 274.625,187.347 274.900 C 187.143 275.240,187.263 275.224,187.723 274.851 C 188.095 274.549,188.403 274.009,188.406 273.651 C 188.411 273.127,188.480 273.107,188.760 273.550 C 189.186 274.222,191.730 272.916,191.444 272.172 C 191.337 271.891,191.631 271.793,192.237 271.909 C 192.813 272.019,193.200 271.904,193.200 271.623 C 193.200 271.364,193.353 271.247,193.539 271.363 C 193.726 271.478,194.259 271.219,194.723 270.786 C 195.187 270.354,195.844 270.000,196.183 270.000 C 196.522 270.000,196.803 269.685,196.806 269.300 C 196.811 268.702,196.869 268.687,197.200 269.200 C 197.555 269.749,197.778 269.479,197.637 268.670 C 197.606 268.489,197.766 268.455,197.993 268.596 C 198.220 268.736,198.511 268.577,198.639 268.243 C 198.847 267.701,199.041 267.703,200.435 268.261 C 201.295 268.605,202.269 268.782,202.599 268.656 C 202.930 268.529,203.200 268.610,203.200 268.836 C 203.200 269.062,203.360 269.149,203.555 269.028 C 203.750 268.907,203.885 269.122,203.855 269.504 C 203.821 269.938,204.062 270.179,204.496 270.145 C 204.881 270.115,205.078 270.274,204.936 270.503 C 204.775 270.764,205.071 270.841,205.741 270.713 C 206.551 270.559,206.800 270.671,206.800 271.191 C 206.800 271.882,208.603 272.969,209.170 272.619 C 209.340 272.513,209.862 272.867,210.330 273.405 C 210.835 273.986,211.427 274.288,211.790 274.149 C 212.151 274.010,212.403 274.136,212.406 274.457 C 212.411 274.907,212.470 274.909,212.750 274.466 C 213.021 274.040,213.139 274.065,213.342 274.592 C 213.481 274.954,213.755 275.151,213.952 275.030 C 214.148 274.908,214.535 275.081,214.811 275.414 C 215.234 275.924,215.195 275.981,214.557 275.779 C 213.833 275.550,213.832 275.560,214.533 276.008 C 214.936 276.266,215.611 276.386,216.033 276.276 C 216.455 276.165,216.800 276.249,216.800 276.461 C 216.800 276.673,216.960 276.749,217.155 276.628 C 217.350 276.507,217.485 276.722,217.455 277.104 C 217.421 277.538,217.662 277.779,218.096 277.745 C 218.481 277.715,218.678 277.874,218.536 278.103 C 218.375 278.364,218.671 278.441,219.341 278.313 C 220.151 278.159,220.400 278.271,220.400 278.791 C 220.400 279.482,222.203 280.569,222.770 280.219 C 222.940 280.113,223.462 280.467,223.930 281.005 C 224.435 281.586,225.027 281.888,225.390 281.749 C 225.751 281.610,226.003 281.736,226.006 282.057 C 226.011 282.507,226.070 282.509,226.350 282.066 C 226.621 281.640,226.739 281.665,226.942 282.192 C 227.081 282.554,227.355 282.751,227.552 282.630 C 227.748 282.508,228.135 282.681,228.411 283.014 C 228.834 283.524,228.795 283.581,228.157 283.379 C 227.433 283.150,227.432 283.160,228.133 283.608 C 228.536 283.866,229.211 283.986,229.633 283.876 C 230.055 283.765,230.400 283.849,230.400 284.061 C 230.400 284.273,230.560 284.349,230.755 284.228 C 230.950 284.107,231.085 284.322,231.055 284.704 C 231.021 285.138,231.262 285.379,231.696 285.345 C 232.081 285.315,232.278 285.474,232.136 285.703 C 231.975 285.964,232.271 286.041,232.941 285.913 C 233.751 285.759,234.000 285.871,234.000 286.391 C 234.000 287.082,235.803 288.169,236.370 287.819 C 236.540 287.713,237.062 288.067,237.530 288.605 C 238.035 289.186,238.627 289.488,238.990 289.349 C 239.351 289.210,239.603 289.336,239.606 289.657 C 239.611 290.107,239.670 290.109,239.950 289.666 C 240.221 289.240,240.339 289.265,240.542 289.792 C 240.681 290.154,240.955 290.351,241.152 290.230 C 241.348 290.108,241.735 290.281,242.011 290.614 C 242.434 291.124,242.395 291.181,241.757 290.979 C 241.033 290.750,241.032 290.760,241.733 291.208 C 242.136 291.466,242.811 291.586,243.233 291.476 C 243.655 291.365,244.000 291.449,244.000 291.661 C 244.000 291.873,244.160 291.949,244.355 291.828 C 244.550 291.707,244.685 291.922,244.655 292.304 C 244.621 292.738,244.862 292.979,245.296 292.945 C 245.681 292.915,245.878 293.074,245.736 293.303 C 245.575 293.564,245.871 293.641,246.541 293.513 C 247.351 293.359,247.600 293.471,247.600 293.991 C 247.600 294.682,249.403 295.769,249.970 295.419 C 250.140 295.313,250.662 295.667,251.130 296.205 C 251.635 296.786,252.227 297.088,252.590 296.949 C 252.951 296.810,253.203 296.936,253.206 297.257 C 253.211 297.707,253.270 297.709,253.550 297.266 C 253.821 296.840,253.939 296.865,254.142 297.392 C 254.281 297.754,254.555 297.951,254.752 297.830 C 254.948 297.708,255.335 297.881,255.611 298.214 C 256.034 298.724,255.995 298.781,255.357 298.579 C 254.633 298.350,254.632 298.360,255.333 298.808 C 255.736 299.066,256.411 299.186,256.833 299.076 C 257.255 298.965,257.600 299.049,257.600 299.261 C 257.600 299.473,257.760 299.549,257.955 299.428 C 258.150 299.307,258.285 299.522,258.255 299.904 C 258.221 300.338,258.462 300.579,258.896 300.545 C 259.281 300.515,259.478 300.674,259.336 300.903 C 259.175 301.164,259.471 301.241,260.141 301.113 C 260.951 300.959,261.200 301.071,261.200 301.591 C 261.200 302.282,263.003 303.369,263.570 303.019 C 263.740 302.913,264.262 303.267,264.730 303.805 C 265.235 304.386,265.827 304.688,266.190 304.549 C 266.551 304.410,266.803 304.536,266.806 304.857 C 266.811 305.307,266.870 305.309,267.150 304.866 C 267.421 304.440,267.539 304.465,267.742 304.992 C 267.881 305.354,268.163 305.546,268.370 305.419 C 268.576 305.291,268.858 305.370,268.996 305.593 C 269.134 305.817,269.012 306.003,268.724 306.006 C 268.294 306.011,268.294 306.072,268.726 306.346 C 269.015 306.529,269.655 306.602,270.147 306.508 C 270.818 306.380,271.165 306.605,271.531 307.408 C 271.854 308.117,272.225 308.399,272.630 308.244 C 273.021 308.094,273.141 308.172,272.961 308.463 C 272.769 308.773,273.015 308.852,273.741 308.713 C 274.551 308.559,274.800 308.671,274.800 309.191 C 274.800 309.565,275.258 310.080,275.819 310.336 C 277.006 310.877,277.645 310.943,276.857 310.444 C 276.499 310.217,276.458 310.011,276.737 309.839 C 276.970 309.695,277.358 309.948,277.600 310.400 C 277.842 310.852,278.209 311.118,278.415 310.990 C 278.622 310.863,278.684 311.038,278.553 311.379 C 278.332 311.954,278.806 312.207,279.763 312.026 C 279.963 311.989,280.275 312.192,280.457 312.479 C 280.716 312.887,280.790 312.870,280.800 312.400 C 280.811 311.867,280.854 311.867,281.192 312.400 C 281.400 312.730,281.757 313.023,281.985 313.050 C 282.924 313.163,282.974 313.229,282.400 313.600 C 281.732 314.032,282.140 314.154,283.823 314.026 C 284.337 313.987,284.852 314.349,285.198 314.996 C 285.517 315.593,285.980 315.940,286.296 315.819 C 286.631 315.690,286.733 315.784,286.561 316.063 C 286.369 316.373,286.615 316.452,287.341 316.313 C 288.151 316.159,288.400 316.271,288.400 316.791 C 288.400 317.165,288.858 317.680,289.419 317.936 C 290.606 318.477,291.245 318.543,290.457 318.044 C 290.099 317.817,290.058 317.611,290.337 317.439 C 290.570 317.295,290.958 317.548,291.200 318.000 C 291.442 318.452,291.809 318.718,292.015 318.590 C 292.222 318.463,292.284 318.638,292.153 318.979 C 291.924 319.574,292.349 319.779,293.500 319.630 C 293.775 319.594,294.003 319.798,294.006 320.082 C 294.010 320.451,294.124 320.427,294.400 320.000 C 294.613 319.670,294.791 319.591,294.794 319.825 C 294.804 320.532,296.418 322.036,296.869 321.758 C 297.100 321.615,297.447 321.746,297.639 322.049 C 297.891 322.448,297.989 322.462,297.994 322.100 C 297.997 321.825,298.191 321.600,298.424 321.600 C 298.657 321.600,298.763 321.737,298.659 321.904 C 298.332 322.434,299.514 323.700,300.035 323.378 C 300.367 323.173,300.420 323.243,300.202 323.596 C 299.960 323.988,300.142 324.066,300.941 323.913 C 301.523 323.802,302.000 323.877,302.000 324.079 C 302.000 324.282,302.160 324.349,302.355 324.228 C 302.550 324.107,302.685 324.304,302.655 324.665 C 302.622 325.058,303.133 325.542,303.933 325.875 C 304.975 326.308,305.198 326.317,304.956 325.914 C 304.706 325.498,304.766 325.497,305.270 325.905 C 306.821 327.160,306.813 327.546,306.705 258.954 L 306.600 192.600 200.875 192.497 C 142.726 192.440,95.243 192.545,95.357 192.730 C 95.471 192.915,95.311 193.067,95.000 193.067 C 94.689 193.067,94.528 192.917,94.641 192.733 C 94.755 192.550,94.676 192.400,94.466 192.400 C 94.257 192.400,93.993 192.641,93.880 192.936 " stroke="none" fill="#1565c0" fill-rule="evenodd"></path><path id="path1" d="M94.400 84.824 C 94.400 85.057,94.265 85.164,94.100 85.062 C 93.935 84.960,93.800 91.412,93.800 99.400 C 93.800 107.388,93.935 113.840,94.100 113.738 C 94.265 113.636,94.400 113.743,94.400 113.976 C 94.400 114.209,94.616 114.400,94.880 114.400 C 95.253 114.400,95.253 114.293,94.880 113.920 C 94.192 113.232,94.192 85.568,94.880 84.880 C 95.253 84.507,95.253 84.400,94.880 84.400 C 94.616 84.400,94.400 84.591,94.400 84.824 M147.668 84.700 C 176.415 84.757,223.575 84.757,252.468 84.700 C 281.361 84.643,257.840 84.597,200.200 84.597 C 142.560 84.597,118.921 84.643,147.668 84.700 M306.180 99.400 C 306.180 106.880,306.234 109.883,306.299 106.074 C 306.365 102.265,306.365 96.145,306.299 92.474 C 306.233 88.803,306.179 91.920,306.180 99.400 M147.668 114.300 C 176.415 114.357,223.575 114.357,252.468 114.300 C 281.361 114.243,257.840 114.197,200.200 114.197 C 142.560 114.197,118.921 114.243,147.668 114.300 M200.200 138.800 L 95.400 139.002 200.276 139.101 C 269.869 139.167,305.236 139.065,305.400 138.800 C 305.536 138.580,305.502 138.444,305.324 138.499 C 305.146 138.553,257.840 138.689,200.200 138.800 M305.960 138.856 C 305.872 139.155,305.888 145.610,305.995 153.200 L 306.190 167.000 306.395 153.200 C 306.579 140.784,306.468 137.123,305.960 138.856 M93.910 153.800 C 93.850 161.170,93.935 167.200,94.100 167.200 C 94.265 167.200,94.400 161.170,94.400 153.800 C 94.400 146.430,94.315 140.400,94.210 140.400 C 94.106 140.400,93.971 146.430,93.910 153.800 M93.796 168.007 C 93.660 168.226,93.838 168.517,94.192 168.652 C 95.053 168.983,95.243 168.714,94.581 168.104 C 94.239 167.789,93.952 167.753,93.796 168.007 M93.900 240.738 C 93.956 266.622,94.048 296.080,94.105 306.200 C 94.162 316.320,94.249 295.350,94.298 259.600 C 94.347 223.850,94.256 194.392,94.094 194.138 C 93.932 193.884,93.845 214.854,93.900 240.738 M202.466 268.757 C 202.046 269.019,202.081 269.145,202.633 269.357 C 203.019 269.505,203.529 269.414,203.767 269.154 C 204.081 268.812,204.072 268.754,203.734 268.944 C 203.478 269.087,203.208 269.030,203.134 268.815 C 203.058 268.595,202.769 268.569,202.466 268.757 M212.812 274.461 C 212.805 274.847,213.318 275.302,214.045 275.556 C 215.125 275.932,215.225 275.912,214.799 275.399 C 214.530 275.074,214.161 274.901,213.979 275.013 C 213.798 275.125,213.464 274.898,213.237 274.508 C 212.872 273.881,212.823 273.876,212.812 274.461 M216.066 276.357 C 215.646 276.619,215.681 276.745,216.233 276.957 C 216.619 277.105,217.129 277.014,217.367 276.754 C 217.681 276.412,217.672 276.354,217.334 276.544 C 217.078 276.687,216.808 276.630,216.734 276.415 C 216.658 276.195,216.369 276.169,216.066 276.357 M226.412 282.061 C 226.405 282.447,226.918 282.902,227.645 283.156 C 228.725 283.532,228.825 283.512,228.399 282.999 C 228.130 282.674,227.761 282.501,227.579 282.613 C 227.398 282.725,227.064 282.498,226.837 282.108 C 226.472 281.481,226.423 281.476,226.412 282.061 M229.666 283.957 C 229.246 284.219,229.281 284.345,229.833 284.557 C 230.219 284.705,230.729 284.614,230.967 284.354 C 231.281 284.012,231.272 283.954,230.934 284.144 C 230.678 284.287,230.408 284.230,230.334 284.015 C 230.258 283.795,229.969 283.769,229.666 283.957 M162.146 288.087 C 162.040 288.259,162.313 288.400,162.753 288.400 C 163.193 288.400,163.657 288.231,163.785 288.024 C 163.913 287.818,163.640 287.677,163.178 287.712 C 162.717 287.746,162.252 287.915,162.146 288.087 M240.012 289.661 C 240.005 290.047,240.518 290.502,241.245 290.756 C 242.325 291.132,242.425 291.112,241.999 290.599 C 241.730 290.274,241.361 290.101,241.179 290.213 C 240.998 290.325,240.664 290.098,240.437 289.708 C 240.072 289.081,240.023 289.076,240.012 289.661 M243.266 291.557 C 242.846 291.819,242.881 291.945,243.433 292.157 C 243.819 292.305,244.329 292.214,244.567 291.954 C 244.881 291.612,244.872 291.554,244.534 291.744 C 244.278 291.887,244.008 291.830,243.934 291.615 C 243.858 291.395,243.569 291.369,243.266 291.557 M148.546 295.687 C 148.440 295.859,148.713 296.000,149.153 296.000 C 149.593 296.000,150.057 295.831,150.185 295.624 C 150.313 295.418,150.040 295.277,149.578 295.312 C 149.117 295.346,148.652 295.515,148.546 295.687 M253.612 297.261 C 253.605 297.647,254.118 298.102,254.845 298.356 C 255.925 298.732,256.025 298.712,255.599 298.199 C 255.330 297.874,254.961 297.701,254.779 297.813 C 254.598 297.925,254.264 297.698,254.037 297.308 C 253.672 296.681,253.623 296.676,253.612 297.261 M256.866 299.157 C 256.446 299.419,256.481 299.545,257.033 299.757 C 257.419 299.905,257.929 299.814,258.167 299.554 C 258.481 299.212,258.472 299.154,258.134 299.344 C 257.878 299.487,257.608 299.430,257.534 299.215 C 257.458 298.995,257.169 298.969,256.866 299.157 M134.946 303.287 C 134.840 303.459,135.113 303.600,135.553 303.600 C 135.993 303.600,136.457 303.431,136.585 303.224 C 136.713 303.018,136.440 302.877,135.978 302.912 C 135.517 302.946,135.052 303.115,134.946 303.287 M267.212 304.857 C 267.205 305.219,267.485 305.624,267.833 305.757 C 268.780 306.121,269.278 306.051,268.996 305.593 C 268.858 305.370,268.588 305.284,268.397 305.402 C 268.206 305.520,267.864 305.298,267.637 304.908 C 267.274 304.285,267.223 304.279,267.212 304.857 M270.176 307.013 C 271.173 307.766,271.637 307.761,271.345 307.000 C 271.218 306.670,270.729 306.406,270.257 306.413 C 269.417 306.425,269.416 306.437,270.176 307.013 M276.696 309.837 C 276.331 310.202,277.993 311.651,278.452 311.368 C 278.913 311.083,278.898 310.774,278.428 310.900 C 278.224 310.955,277.814 310.675,277.517 310.278 C 277.221 309.880,276.851 309.682,276.696 309.837 M121.346 310.887 C 121.240 311.059,121.513 311.200,121.953 311.200 C 122.393 311.200,122.857 311.031,122.985 310.824 C 123.113 310.618,122.840 310.477,122.378 310.512 C 121.917 310.546,121.452 310.715,121.346 310.887 M280.812 312.457 C 280.805 312.819,281.085 313.224,281.433 313.357 C 282.380 313.721,282.878 313.651,282.596 313.193 C 282.458 312.970,282.188 312.884,281.997 313.002 C 281.806 313.120,281.464 312.898,281.237 312.508 C 280.874 311.885,280.823 311.879,280.812 312.457 M283.200 314.190 C 283.200 314.294,283.747 314.662,284.414 315.007 C 285.603 315.622,285.618 315.618,285.118 314.818 C 284.681 314.117,283.200 313.632,283.200 314.190 M290.296 317.437 C 289.931 317.802,291.593 319.251,292.052 318.968 C 292.513 318.683,292.498 318.374,292.028 318.500 C 291.824 318.555,291.414 318.275,291.117 317.878 C 290.821 317.480,290.451 317.282,290.296 317.437 M107.746 318.487 C 107.640 318.659,107.913 318.800,108.353 318.800 C 108.793 318.800,109.257 318.631,109.385 318.424 C 109.513 318.218,109.240 318.077,108.778 318.112 C 108.317 318.146,107.852 318.315,107.746 318.487 M298.000 322.157 C 298.000 322.464,298.295 322.828,298.657 322.966 C 299.175 323.165,299.218 323.104,298.860 322.672 C 298.611 322.372,298.525 322.008,298.670 321.863 C 298.815 321.718,298.723 321.600,298.467 321.600 C 298.210 321.600,298.000 321.851,298.000 322.157 M301.266 323.957 C 300.846 324.219,300.881 324.345,301.433 324.557 C 301.819 324.705,302.329 324.614,302.567 324.354 C 302.881 324.012,302.872 323.954,302.534 324.144 C 302.278 324.287,302.008 324.230,301.934 324.015 C 301.858 323.795,301.569 323.769,301.266 323.957 " stroke="none" fill="#fc6c1c" fill-rule="evenodd"></path></g></svg>